<?xml version="1.0" encoding="UTF-8"?>
<svg width="96px" height="96px" viewBox="0 0 96 96" version="1.1" xmlns="http://www.w3.org/2000/svg" xmlns:xlink="http://www.w3.org/1999/xlink">
    <!-- Generator: Sketch 53 (72520) - https://sketchapp.com -->
    <title>launcher</title>
    <desc>Created with Sketch.</desc>
    <defs>
        <path d="M22.7673006,0 L73.2326994,0 C81.1493858,-5.34445507e-16 84.0201676,0.824291427 86.9143898,2.37213841 C89.8086121,3.91998539 92.0800146,6.19138793 93.6278616,9.08561015 C95.1757086,11.9798324 96,14.8506142 96,22.7673006 L96,73.2326994 C96,81.1493858 95.1757086,84.0201676 93.6278616,86.9143898 C92.0800146,89.8086121 89.8086121,92.0800146 86.9143898,93.6278616 C84.0201676,95.1757086 81.1493858,96 73.2326994,96 L22.7673006,96 C14.8506142,96 11.9798324,95.1757086 9.08561015,93.6278616 C6.19138793,92.0800146 3.91998539,89.8086121 2.37213841,86.9143898 C0.824291427,84.0201676 3.56297005e-16,81.1493858 -6.13217462e-16,73.2326994 L0,22.7673006 C-3.56297005e-16,14.8506142 0.824291427,11.9798324 2.37213841,9.08561015 C3.91998539,6.19138793 6.19138793,3.91998539 9.08561015,2.37213841 C11.9798324,0.824291427 14.8506142,5.34445507e-16 22.7673006,-9.19826193e-16 Z" id="path-1"></path>
        <linearGradient x1="50%" y1="100%" x2="50%" y2="3.061617e-15%" id="linearGradient-3">
            <stop stop-color="#17C060" stop-opacity="0.78" offset="0%"></stop>
            <stop stop-color="#17C060" stop-opacity="0.24" offset="100%"></stop>
        </linearGradient>
        <linearGradient x1="50%" y1="100%" x2="50%" y2="3.061617e-15%" id="linearGradient-4">
            <stop stop-color="#327D32" offset="0%"></stop>
            <stop stop-color="#17C060" offset="100%"></stop>
        </linearGradient>
    </defs>
    <g id="launcher" stroke="none" stroke-width="1" fill="none" fill-rule="evenodd">
        <g id="launcher---cropped">
            <mask id="mask-2" fill="white">
                <use xlink:href="#path-1"></use>
            </mask>
            <use id="Mask" fill="#FFFFFF" fill-rule="nonzero" xlink:href="#path-1"></use>
            <g id="icon" stroke-width="1" fill-rule="evenodd" mask="url(#mask-2)">
                <g transform="translate(12.000000, 18.000000)">
                    <path d="M26.7274938,58.8689405 C28.0986471,58.8689687 35.144862,49.241064 40.1458619,39.4606751 C43.0585333,33.7644023 38.9560717,34.2198722 38.955991,30.2921417 C38.9559654,29.0452156 45.1697507,21.6224067 44.9627096,20.4412266 C43.3978308,11.5135139 36.1514851,4.76590589 26.7263829,4.76571238 C16.0542936,4.76549327 8.17597454,13.4163459 8.17619365,24.087913 C8.17641276,34.7594801 24.5577564,58.868896 26.7274938,58.8689405 Z" id="left" fill="url(#linearGradient-3)" fill-rule="nonzero" transform="translate(26.571982, 31.817326) rotate(-20.000000) translate(-26.571982, -31.817326) "></path>
                    <g id="right" stroke-width="1" fill="none" fill-rule="evenodd" transform="translate(45.270837, 31.791829) rotate(20.000000) translate(-45.270837, -31.791829) translate(26.708337, 4.715436)">
                        <path d="M18.5507246,54.1028238 C16.380971,54.1028238 1.70530257e-13,29.9939244 1.70530257e-13,19.3224371 C1.70530257e-13,8.65094975 7.87855556,5.68434189e-14 18.5507246,5.68434189e-14 C29.2228937,5.68434189e-14 37.1014493,8.65094975 37.1014493,19.3224371 C37.1014493,29.9939244 20.7204783,54.1028238 18.5507246,54.1028238 Z M18.5507246,26.2785144 C22.8195923,26.2785144 26.2801932,22.8181345 26.2801932,18.5495396 C26.2801932,14.2809447 22.8195923,10.8205648 18.5507246,10.8205648 C14.281857,10.8205648 10.821256,14.2809447 10.821256,18.5495396 C10.821256,22.8181345 14.281857,26.2785144 18.5507246,26.2785144 Z" id="Combined-Shape" fill="url(#linearGradient-4)" fill-rule="nonzero"></path>
                    </g>
                </g>
            </g>
        </g>
    </g>
</svg>